<svg width="30" height="22" viewBox="0 0 30 22" fill="none" xmlns="http://www.w3.org/2000/svg">
<g clip-path="url(#clip0_6048_1804)">
<mask id="mask0_6048_1804" style="mask-type:alpha" maskUnits="userSpaceOnUse" x="0" y="0" width="30" height="22">
<path d="M27.1429 0H2.85714C1.27919 0 0 1.3133 0 2.93333V19.0667C0 20.6867 1.27919 22 2.85714 22H27.1429C28.7208 22 30 20.6867 30 19.0667V2.93333C30 1.3133 28.7208 0 27.1429 0Z" fill="white"/>
</mask>
<g mask="url(#mask0_6048_1804)">
<path d="M27.1429 0H2.85714C1.27919 0 0 1.3133 0 2.93333V19.0667C0 20.6867 1.27919 22 2.85714 22H27.1429C28.7208 22 30 20.6867 30 19.0667V2.93333C30 1.3133 28.7208 0 27.1429 0Z" fill="white"/>
<path fill-rule="evenodd" clip-rule="evenodd" d="M0 0H12.8571V10.2667H0V0Z" fill="#444379"/>
<path fill-rule="evenodd" clip-rule="evenodd" d="M1.42871 1.46655V2.93322H2.85728V1.46655H1.42871ZM4.28585 1.46655V2.93322H5.71443V1.46655H4.28585ZM7.143 1.46655V2.93322H8.57157V1.46655H7.143ZM10.0001 1.46655V2.93322H11.4287V1.46655H10.0001ZM8.57157 2.93322V4.39989H10.0001V2.93322H8.57157ZM5.71443 2.93322V4.39989H7.143V2.93322H5.71443ZM2.85728 2.93322V4.39989H4.28585V2.93322H2.85728ZM1.42871 4.39989V5.86655H2.85728V4.39989H1.42871ZM4.28585 4.39989V5.86655H5.71443V4.39989H4.28585ZM7.143 4.39989V5.86655H8.57157V4.39989H7.143ZM10.0001 4.39989V5.86655H11.4287V4.39989H10.0001ZM1.42871 7.33322V8.79989H2.85728V7.33322H1.42871ZM4.28585 7.33322V8.79989H5.71443V7.33322H4.28585ZM7.143 7.33322V8.79989H8.57157V7.33322H7.143ZM10.0001 7.33322V8.79989H11.4287V7.33322H10.0001ZM8.57157 5.86655V7.33322H10.0001V5.86655H8.57157ZM5.71443 5.86655V7.33322H7.143V5.86655H5.71443ZM2.85728 5.86655V7.33322H4.28585V5.86655H2.85728Z" fill="#A7B6E7"/>
<path fill-rule="evenodd" clip-rule="evenodd" d="M12.8571 0V1.46667H30V0H12.8571ZM12.8571 2.93333V4.4H30V2.93333H12.8571ZM12.8571 5.86667V7.33333H30V5.86667H12.8571ZM12.8571 8.8V10.2667H30V8.8H12.8571ZM0 11.7333V13.2H30V11.7333H0ZM0 14.6667V16.1333H30V14.6667H0ZM0 17.6V19.0667H30V17.6H0ZM0 20.5333V22H30V20.5333H0Z" fill="#ED4C49"/>
<path d="M27.1424 0.733398H2.85672C1.67326 0.733398 0.713867 1.71837 0.713867 2.9334V19.0667C0.713867 20.2818 1.67326 21.2667 2.85672 21.2667H27.1424C28.3259 21.2667 29.2853 20.2818 29.2853 19.0667V2.9334C29.2853 1.71837 28.3259 0.733398 27.1424 0.733398Z" stroke="black" stroke-opacity="0.1" stroke-width="1.2"/>
</g>
</g>
<defs>
<clipPath id="clip0_6048_1804">
<rect width="30" height="22" fill="white"/>
</clipPath>
</defs>
</svg>
