<svg width="30" height="22" viewBox="0 0 30 22" fill="none" xmlns="http://www.w3.org/2000/svg">
<g clip-path="url(#clip0_6048_1800)">
<mask id="mask0_6048_1800" style="mask-type:alpha" maskUnits="userSpaceOnUse" x="0" y="0" width="30" height="22">
<path d="M27.1429 0H2.85714C1.27919 0 0 1.3133 0 2.93333V19.0667C0 20.6867 1.27919 22 2.85714 22H27.1429C28.7208 22 30 20.6867 30 19.0667V2.93333C30 1.3133 28.7208 0 27.1429 0Z" fill="white"/>
</mask>
<g mask="url(#mask0_6048_1800)">
<path d="M27.1429 0H2.85714C1.27919 0 0 1.3133 0 2.93333V19.0667C0 20.6867 1.27919 22 2.85714 22H27.1429C28.7208 22 30 20.6867 30 19.0667V2.93333C30 1.3133 28.7208 0 27.1429 0Z" fill="#009C34"/>
<path fill-rule="evenodd" clip-rule="evenodd" d="M15.0004 2.93335L25.7147 11L15.0004 19.0667L4.28613 11" fill="#F8E23D"/>
<path d="M15 16.1334C17.7614 16.1334 20 13.8351 20 11C20 8.16497 17.7614 5.8667 15 5.8667C12.2386 5.8667 10 8.16497 10 11C10 13.8351 12.2386 16.1334 15 16.1334Z" fill="#002478"/>
<path fill-rule="evenodd" clip-rule="evenodd" d="M12.8574 13.2V14.6666H14.286V13.2H12.8574ZM15.7146 13.2V14.6666H17.1431V13.2H15.7146Z" fill="#91A1C3"/>
<path d="M11.4287 8.80005C11.4287 8.80005 14.663 9.38672 16.9944 10.4104L20.0001 11.7334" stroke="#C9D0E0" stroke-width="1.2"/>
<path d="M27.1424 0.733398H2.85672C1.67326 0.733398 0.713867 1.71837 0.713867 2.9334V19.0667C0.713867 20.2818 1.67326 21.2667 2.85672 21.2667H27.1424C28.3259 21.2667 29.2853 20.2818 29.2853 19.0667V2.9334C29.2853 1.71837 28.3259 0.733398 27.1424 0.733398Z" stroke="black" stroke-opacity="0.1" stroke-width="1.2"/>
</g>
</g>
<defs>
<clipPath id="clip0_6048_1800">
<rect width="30" height="22" fill="white"/>
</clipPath>
</defs>
</svg>
